<?xml version="1.0" encoding="iso-8859-1"?>
<!-- Generator: Adobe Illustrator 19.0.0, SVG Export Plug-In . SVG Version: 6.00 Build 0)  -->
<svg version="1.1" id="Layer_1" xmlns="http://www.w3.org/2000/svg" xmlns:xlink="http://www.w3.org/1999/xlink" x="0px" y="0px"
	 viewBox="0 0 512 512" width="40px" height="40px" style="enable-background:new 0 0 512 512;" xml:space="preserve">
<g>
	<g>
		<path d="M489.739,0H22.261C13.04,0,5.565,7.475,5.565,16.696V395.13c0,9.22,7.475,16.696,16.696,16.696h183.652v66.783h-61.217
			c-9.22,0-16.696,7.475-16.696,16.696S135.475,512,144.696,512h77.913h66.783h77.913c9.22,0,16.696-7.475,16.696-16.696
			s-7.475-16.696-16.696-16.696h-61.217v-66.783h183.652c9.22,0,16.696-7.475,16.696-16.696V16.696
			C506.435,7.475,498.96,0,489.739,0z M272.696,478.609h-33.391v-66.783h33.391V478.609z M473.043,378.435H289.391h-66.783H38.957
			v-33.391h434.087V378.435z M473.043,311.652H38.957V33.391h434.087V311.652z"/>
	</g>
</g>
<g>
	<g>
		<path d="M155.826,66.783H89.044c-9.22,0-16.696,7.475-16.696,16.696v178.087c0,9.22,7.475,16.696,16.696,16.696h66.783
			c9.22,0,16.696-7.475,16.696-16.696V83.478C172.522,74.258,165.047,66.783,155.826,66.783z M139.13,244.87h-33.391V100.174h33.391
			V244.87z"/>
	</g>
</g>
<g>
	<g>
		<path d="M289.391,100.174h-66.783c-9.22,0-16.696,7.475-16.696,16.696v144.696c0,9.22,7.475,16.696,16.696,16.696h66.783
			c9.22,0,16.696-7.475,16.696-16.696V116.87C306.087,107.649,298.612,100.174,289.391,100.174z M272.696,244.87h-33.391V133.565
			h33.391V244.87z"/>
	</g>
</g>
<g>
	<g>
		<path d="M422.957,166.957h-66.783c-9.22,0-16.696,7.475-16.696,16.696v77.913c0,9.22,7.475,16.696,16.696,16.696h66.783
			c9.22,0,16.696-7.475,16.696-16.696v-77.913C439.652,174.432,432.177,166.957,422.957,166.957z M406.261,244.87H372.87v-44.522
			h33.391V244.87z"/>
	</g>
</g>
<g>
</g>
<g>
</g>
<g>
</g>
<g>
</g>
<g>
</g>
<g>
</g>
<g>
</g>
<g>
</g>
<g>
</g>
<g>
</g>
<g>
</g>
<g>
</g>
<g>
</g>
<g>
</g>
<g>
</g>
</svg>
